HIERARCHY
ROOT Hips
{
    OFFSET 0.000000 0.000000 0.000000
    CHANNELS 6 Xposition Yposition Zposition Zrotation Xrotation Yrotation
    JOINT Spine
    {
        OFFSET -0.000000 8.129577 0.000000
        CHANNELS 3 Zrotation Xrotation Yrotation
        JOINT Spine1
        {
            OFFSET -0.000000 26.390701 0.000000
            CHANNELS 3 Zrotation Xrotation Yrotation
            JOINT Neck
            {
                OFFSET -0.000000 26.282320 2.389302
                CHANNELS 3 Zrotation Xrotation Yrotation
                JOINT Head
                {
                    OFFSET -0.000000 13.879765 -1.982823
                    CHANNELS 3 Zrotation Xrotation Yrotation
                    End Site
                    {
                        OFFSET -0.000000 24.785294 0.000000
                    }
                }
            }
            JOINT LeftShoulder
            {
                OFFSET 3.977886 23.574526 -0.273520
                CHANNELS 3 Zrotation Xrotation Yrotation
                JOINT LeftArm
                {
                    OFFSET 13.762619 0.000000 0.000000
                    CHANNELS 3 Zrotation Xrotation Yrotation
                    JOINT LeftForeArm
                    {
                        OFFSET 26.101372 0.000000 0.000000
                        CHANNELS 3 Zrotation Xrotation Yrotation
                        JOINT LeftHand
                        {
                            OFFSET 29.959852 0.000000 0.000000
                            CHANNELS 3 Zrotation Xrotation Yrotation
                            End Site
                            {
                                OFFSET 14.871177 0.000000 0.000000
                            }
                        }
                    }
                }
            }
            JOINT RightShoulder
            {
                OFFSET -3.951699 23.574526 -0.273520
                CHANNELS 3 Zrotation Xrotation Yrotation
                JOINT RightArm
                {
                    OFFSET -13.762619 0.000000 0.000000
                    CHANNELS 3 Zrotation Xrotation Yrotation
                    JOINT RightForeArm
                    {
                        OFFSET -26.101372 0.000000 0.000000
                        CHANNELS 3 Zrotation Xrotation Yrotation
                        JOINT RightHand
                        {
                            OFFSET -29.959852 0.000000 0.000000
                            CHANNELS 3 Zrotation Xrotation Yrotation
                            End Site
                            {
                                OFFSET -14.871177 0.000000 0.000000
                            }
                        }
                    }
                }
            }
        }
    }
    JOINT LeftUpLeg
    {
        OFFSET 9.914117 0.000000 0.000000
        CHANNELS 3 Zrotation Xrotation Yrotation
        JOINT LeftLeg
        {
            OFFSET -0.000000 -41.427933 0.000000
            CHANNELS 3 Zrotation Xrotation Yrotation
            JOINT LeftFoot
            {
                OFFSET -0.000000 -41.025417 0.000000
                CHANNELS 3 Zrotation Xrotation Yrotation
                JOINT LeftToeBase
                {
                    OFFSET -0.000000 -6.444176 14.871177
                    CHANNELS 3 Zrotation Xrotation Yrotation
                    End Site
                    {
                        OFFSET -0.000000 0.000000 3.965647
                    }
                }
            }
        }
    }
    JOINT RightUpLeg
    {
        OFFSET -9.914117 0.000000 0.000000
        CHANNELS 3 Zrotation Xrotation Yrotation
        JOINT RightLeg
        {
            OFFSET -0.000000 -41.427933 0.000000
            CHANNELS 3 Zrotation Xrotation Yrotation
            JOINT RightFoot
            {
                OFFSET -0.000000 -41.025417 0.000000
                CHANNELS 3 Zrotation Xrotation Yrotation
                JOINT RightToeBase
                {
                    OFFSET -0.000000 -6.444176 14.871177
                    CHANNELS 3 Zrotation Xrotation Yrotation
                    End Site
                    {
                        OFFSET -0.000000 0.000000 3.965647
                    }
                }
            }
        }
    }
}
MOTION
Frames:    10
Frame Time:    0.004000
-9.802026    86.428146    13.769576    4.058959    -5.440360    -0.495823    -2.541183    6.879156    0.981257    -3.356818    11.268927    1.159872    -0.059632    9.367648    -4.458541    2.523298    -8.291059    -4.097928    -11.960971    24.797827    8.818601    -42.169289    19.530815    -10.879860    5.053073    -28.744751    -42.576496    -0.212098    -26.960876    -25.199535    20.536249    26.117739    -7.400862    35.457203    23.344152    12.617091    -6.827745    -30.082397    37.365002    9.906829    -26.036013    25.778803    0.047010    -15.273571    5.398028    -3.921093    24.396879    2.191550    -0.702786    -6.941909    8.140476    0.000000    0.000000    0.000000    -18.136911    2.558986    -1.709645    4.938283    55.195747    15.230062    5.794400    3.299235    -15.811943    0.000000    0.000000    0.000000    
-9.707541    86.511681    14.131732    3.976924    -5.494317    -0.314958    -2.449715    6.880776    0.835140    -3.342724    11.359085    1.020539    -0.094943    9.389676    -4.410319    2.535228    -8.318236    -4.042377    -11.902416    24.789917    8.719578    -42.245998    19.430361    -10.784328    5.012676    -28.740015    -42.685513    -0.148523    -26.977934    -25.194006    20.523832    26.031359    -7.294093    35.492802    23.285522    12.540606    -6.820464    -29.961246    37.426224    10.094462    -25.853292    25.976665    0.018257    -14.931365    5.195580    -3.905315    24.262604    1.982393    -0.728352    -7.094479    8.202032    0.000000    0.000000    0.000000    -18.063080    2.248865    -1.964696    4.983657    55.830040    15.372650    5.921546    3.358840    -16.267040    0.000000    0.000000    0.000000    
-9.612303    86.594261    14.481849    3.907647    -5.530328    -0.197932    -2.387508    6.929997    0.742413    -3.333845    11.349990    0.929326    -0.096143    9.418020    -4.407872    2.535390    -8.324689    -4.039618    -11.893017    24.831110    8.701601    -42.203541    19.310867    -10.813470    4.942544    -28.658264    -42.816269    0.070576    -26.957050    -24.994482    20.558386    25.950224    -7.254210    35.473125    23.607693    12.436046    -6.807428    -30.215567    37.579544    9.931298    -26.174486    25.634205    -0.006174    -14.608155    5.061957    -3.939529    24.160749    2.011993    -0.685916    -7.264373    8.171451    0.000000    0.000000    0.000000    -17.998428    1.831466    -2.433790    4.648803    56.541138    15.772089    6.112337    3.265104    -16.844852    0.000000    0.000000    0.000000    
-9.524708    86.674026    14.823948    3.826367    -5.540909    -0.071301    -2.314937    6.949963    0.638228    -3.323366    11.344654    0.828053    -0.099250    9.427491    -4.378535    2.529000    -8.305947    -4.010657    -11.862324    24.753464    8.762481    -42.150337    19.458981    -10.865395    5.021617    -28.693422    -42.749649    -0.193909    -26.915480    -25.234995    20.570862    25.941607    -7.232208    35.447845    23.559467    12.450746    -6.691152    -30.078663    37.704063    9.790436    -26.091440    25.612677    -0.019991    -14.325027    4.946022    -3.942745    24.077864    1.990118    -0.633340    -7.430055    8.138099    0.000000    0.000000    0.000000    -17.911142    1.435264    -2.613811    4.741597    57.127266    15.553492    6.041066    3.130104    -17.038795    0.000000    0.000000    0.000000    
-9.438160    86.751541    15.161188    3.731101    -5.580655    0.022958    -2.224629    7.002850    0.563102    -3.320578    11.348969    0.757140    -0.149028    9.386700    -4.374794    2.602964    -8.207162    -3.989990    -11.769870    24.825354    8.630186    -42.210827    19.368523    -10.825055    5.026456    -28.687553    -42.907059    0.045207    -26.948320    -24.944221    20.592936    25.926517    -7.236736    35.433231    23.529877    12.475761    -6.616918    -30.035484    37.780216    9.993983    -26.013487    25.730032    -0.011284    -14.047406    5.066085    -3.860680    24.125202    1.244823    -0.511637    -7.659111    8.656862    0.000000    0.000000    0.000000    -17.812454    1.036089    -2.759552    4.891610    57.713375    15.262071    6.131956    2.887109    -17.129784    0.000000    0.000000    0.000000    
-9.352773    86.828697    15.528499    3.632905    -5.628303    0.223268    -2.139627    7.013904    0.430099    -3.243524    11.396565    0.622819    -0.360918    9.650565    -4.281385    2.914659    -8.651371    -3.802977    -11.822012    24.788464    8.685267    -42.086803    19.427141    -10.906884    4.985043    -28.738043    -42.896942    -0.157837    -26.974316    -25.152174    20.581804    25.931200    -7.246572    35.435932    23.426325    12.502314    -6.554493    -29.970558    37.857113    10.135782    -25.907698    26.014179    -0.034293    -13.720439    4.955454    -3.802033    24.056555    1.016137    -0.455502    -7.869638    8.717580    0.000000    0.000000    0.000000    -17.712589    0.744373    -3.049445    4.989120    58.184944    15.025449    6.047968    2.629324    -17.110693    0.000000    0.000000    0.000000    
-9.277554    86.902222    15.855378    3.528497    -5.635549    0.309651    -2.029238    7.079409    0.366331    -3.356672    11.337865    0.574448    -0.116493    9.599401    -4.257746    2.769808    -8.580853    -3.826268    -11.605351    24.808924    8.648515    -42.182640    19.278078    -10.928555    4.921939    -28.575895    -43.069843    0.105823    -26.876278    -24.865641    20.795542    25.932938    -7.332528    35.259674    23.558743    12.530270    -6.329734    -30.148876    38.100586    9.954730    -26.224350    25.555367    -0.006406    -13.463299    4.961427    -3.768848    24.013153    0.846945    -0.394581    -8.050295    8.764350    0.000000    0.000000    0.000000    -17.590132    0.331023    -3.138999    5.210995    58.658211    14.574467    5.761356    2.300779    -16.927502    0.000000    0.000000    0.000000    
-9.191205    86.974426    16.215239    3.439683    -5.661359    0.507504    -1.996789    7.074101    0.244910    -3.127165    11.346091    0.432655    -0.379111    9.696866    -4.258846    2.885023    -8.624528    -3.785602    -11.698212    24.905193    8.491829    -42.141724    19.461704    -10.881921    5.119873    -28.788258    -42.966785    -0.204667    -26.965660    -25.104935    20.636663    25.984819    -7.320415    35.356285    23.493191    12.535634    -6.350500    -30.114614    38.152260    10.255072    -26.082747    25.969107    -0.036852    -13.173480    4.885990    -3.699111    23.961458    0.636212    -0.334231    -8.238012    8.805780    0.000000    0.000000    0.000000    -17.498625    0.039719    -3.387161    5.366302    59.035923    14.176635    5.490020    1.919852    -16.661596    0.000000    0.000000    0.000000    
-9.107124    87.051781    16.549768    3.382553    -5.618896    0.628887    -1.956758    7.012551    0.155499    -3.082686    11.375919    0.343309    -0.383079    9.716702    -4.247930    2.837062    -8.661642    -3.783535    -11.659557    24.786390    8.491654    -42.112362    19.592424    -10.879992    5.100569    -28.818316    -42.990894    -0.013737    -27.039755    -25.021225    20.630764    25.966173    -7.316848    35.347340    23.436741    12.551071    -6.224756    -30.071737    38.258713    10.279923    -26.073383    25.886831    -0.081567    -12.958741    4.899127    -3.618672    23.896233    0.429567    -0.276038    -8.357882    8.828561    0.000000    0.000000    0.000000    -17.445114    -0.405607    -3.632330    5.441670    59.476063    14.272891    5.283427    1.570890    -16.547270    0.000000    0.000000    0.000000    
-9.028362    87.122726    16.897175    3.291942    -5.631117    0.763294    -1.821309    6.984490    0.062635    -3.233469    11.468673    0.276280    -0.145309    9.682839    -4.219916    2.731495    -8.724739    -3.790134    -11.458311    24.871239    8.390244    -42.197426    19.408485    -10.914900    5.097956    -28.788536    -43.105598    -0.099000    -26.988325    -24.993124    20.831690    25.891895    -7.336993    35.217293    23.539326    12.512972    -6.076040    -30.210157    38.420750    10.358575    -26.234907    25.928783    -0.087762    -12.680352    4.866105    -3.561235    23.832754    0.271588    -0.219360    -8.523495    8.848906    0.000000    0.000000    0.000000    -17.341991    -0.770721    -3.781637    5.676447    59.845894    13.980379    4.974614    1.082649    -16.375870    0.000000    0.000000    0.000000    
